<svg xmlns="http://www.w3.org/2000/svg" xmlns:xlink="http://www.w3.org/1999/xlink" width="22" height="22" viewBox="0 0 22 22"><defs><path id="qnz6a" d="M1334 4493a11 11 0 1 1 0 22 11 11 0 0 1 0-22z"/><path id="qnz6b" d="M1334.12 4499.79c0-.44.33-.79.74-.79.2 0 .37.08.5.22l4.42 4.71c.13.14.22.34.22.57a.8.8 0 0 1-.22.57l-4.41 4.71a.71.71 0 0 1-.51.22c-.4 0-.74-.35-.74-.79 0-.2.08-.4.2-.54l3.17-3.38h-8.76c-.4 0-.73-.36-.73-.79 0-.43.33-.79.73-.79h8.76l-3.11-3.33a.8.8 0 0 1-.26-.6z"/></defs><g><g transform="translate(-1323 -4493)"><use fill="#00b0ff" xlink:href="#qnz6a"/></g><g transform="translate(-1323 -4493)"><use fill="#fff" xlink:href="#qnz6b"/></g></g></svg>