<svg xmlns="http://www.w3.org/2000/svg" xmlns:xlink="http://www.w3.org/1999/xlink" width="8" height="16" viewBox="0 0 8 16"><defs><path id="gp9za" d="M1434.27 42.37c.08-.06.18-.1.28-.14l.32-.1.66-.13h.43l3.03.23h.01l-.31 2.7h-.01l-1.67-.17h-.05l-.17.02-.06.02-.19.1a.16.16 0 0 0-.1.05l-.13.15a.6.6 0 0 0-.09.14.84.84 0 0 0-.1.32v.17l.02 1.69 2.45.02-.35 2.68-2.13.08v7.79h-3.32v-7.86H1431v-2.69h1.72v-.05l.07-2.87.02-.16v-.08l.03-.08c0-.07.02-.12.04-.18.02-.05.04-.1.08-.14.03-.12.07-.22.13-.31.04-.1.1-.2.18-.29.05-.08.12-.16.2-.24l.22-.23v-.01z"/></defs><g><g transform="translate(-1431 -42)"><use fill="#fff" xlink:href="#gp9za"/></g></g></svg>