<svg xmlns="http://www.w3.org/2000/svg" xmlns:xlink="http://www.w3.org/1999/xlink" width="20" height="16" viewBox="0 0 20 16"><defs><path id="cfn2a" d="M1526.99 53.23zm0 0c.31 0 .62-.16.75-.24l1.85-1.72 6.05 4.82-4.63-6.13 5.59-5.17v11.23c0 .67-.54 1.2-1.2 1.2h-16.8a1.2 1.2 0 0 1-1.2-1.2v-11.2l5.52 5.09-4.54 6.2 6.12-4.74 1.77 1.63c.36.27.73.23.72.23zm.77-.26c.05-.03.06-.04 0 0zm-.77-2.07l-9.59-6.88c0-.66.54-1.2 1.2-1.2h16.8c.66 0 1.2.54 1.2 1.2z"/></defs><g><g transform="translate(-1517 -42)"><use fill="#fff" xlink:href="#cfn2a"/></g></g></svg>