<svg xmlns="http://www.w3.org/2000/svg" xmlns:xlink="http://www.w3.org/1999/xlink" width="16" height="11" viewBox="0 0 16 11"><defs><path id="77lza" d="M1055.9 4506.93l4.88-4.71c.13.13.22.32.22.53v9.5c0 .2-.08.38-.2.5zm-10.65-4.74c.13-.12.3-.19.5-.19h14.5c.2 0 .37.07.5.2l-7.75 6.05zm-.05 10.57a.75.75 0 0 1-.2-.51v-9.5c0-.2.09-.4.22-.53l4.87 4.71zm7.8-3.01l2.03-1.97 5.73 5.01a.75.75 0 0 1-.51.21h-14.5a.75.75 0 0 1-.51-.2l5.73-5.02z"/></defs><g><g transform="translate(-1045 -4502)"><use fill="#4d4d4d" xlink:href="#77lza"/></g></g></svg>