<svg xmlns="http://www.w3.org/2000/svg" xmlns:xlink="http://www.w3.org/1999/xlink" width="16" height="16" viewBox="0 0 16 16"><defs><path id="dz2za" d="M1489 45.1v9.8a3.1 3.1 0 0 1-3.1 3.1h-9.8a3.1 3.1 0 0 1-3.1-3.1v-9.8a3.1 3.1 0 0 1 3.1-3.1h9.8a3.1 3.1 0 0 1 3.1 3.1zm-4.56-1.25v2.71h2.7v-2.72h-.35zm-6.26 6.15a2.82 2.82 0 1 0 5.64 0 2.82 2.82 0 0 0-5.64 0zm9.26-1.64h-2.39a4.36 4.36 0 0 1-4.05 6.01 4.38 4.38 0 0 1-4.05-6.01h-2.4v6.55c0 .84.7 1.53 1.54 1.53h9.82c.84 0 1.53-.69 1.53-1.53z"/></defs><g><g transform="translate(-1473 -42)"><use fill="#f2f2f2" xlink:href="#dz2za"/></g></g></svg>