<svg xmlns="http://www.w3.org/2000/svg" xmlns:xlink="http://www.w3.org/1999/xlink" width="30" height="30" viewBox="0 0 30 30"><defs><path id="my4ka" d="M424.4 4355.16v17.67c0 3.07-2.5 5.57-5.57 5.57h-17.66a5.57 5.57 0 0 1-5.57-5.57v-17.67c0-3.06 2.5-5.56 5.57-5.56h17.66c3.07 0 5.57 2.5 5.57 5.56zm-8.21-2.23l.01 4.88 4.87-.01v-4.88h-.64zM404.93 4364a5.07 5.07 0 1 0 10.15-.01 5.07 5.07 0 0 0-10.15 0zm16.66-2.96h-4.3a7.88 7.88 0 1 1-14.59 0h-4.3v11.8a2.76 2.76 0 0 0 2.77 2.75h17.66a2.76 2.76 0 0 0 2.76-2.76z"/></defs><g><g transform="translate(-395 -4349)"><use fill="#00b0ff" xlink:href="#my4ka"/></g></g></svg>